
        <svg xmlns="http://www.w3.org/2000/svg" xmlns:xlink="http://www.w3.org/1999/xlink" version="1.1" width="3188.6792452830186" 
        height="1386.7924528301887" viewBox="0 0 3188.6792452830186 1386.7924528301887">
			<rect fill="#ffffff" width="3188.6792452830186" height="1386.7924528301887"/>
			<g transform="scale(9.433962264150944) translate(10, 10)">
				<defs id="SvgjsDefs3054"></defs><g id="SvgjsG3055" featureKey="symbolGroupContainer" transform="matrix(1,0,0,1,0,0)" fill="#2c4b49"><rect xmlns="http://www.w3.org/2000/svg" width="128" height="127" rx="10" ry="10"></rect></g><g id="SvgjsG3056" featureKey="symbolFeature-0" transform="matrix(0.9776536312849161,0,0,0.9776536312849161,15.11173184357542,14.23184348218268)" fill="#ffffff"><path xmlns="http://www.w3.org/2000/svg" d="M11.8,83.6c0,0.2,0,0.2,0,0.2c0,1.4,1,2.2,2.4,2.2c71,0,71,0,71,0c1.2,0,2.4-0.8,2.4-2.2c0-0.2,0-0.2,0-0.2  c0-1.2-1.2-2.4-2.4-2.4c-71,0-71,0-71,0C12.8,81.2,11.8,82.4,11.8,83.6"></path><path xmlns="http://www.w3.org/2000/svg" d="M19.5,36.8c0,0.8,0.8,1.6,1.8,1.6c56.8,0,56.8,0,56.8,0c1,0,1.8-0.8,1.8-1.6c0-0.8-0.8-1.4-1.8-1.4c-56.8,0-56.8,0-56.8,0  C20.3,35.4,19.5,36,19.5,36.8"></path><path xmlns="http://www.w3.org/2000/svg" d="M92.1,88.6c-84.7,0-84.7,0-84.7,0C6,88.6,5,89.8,5,91s0,1.2,0,1.2c0,1.4,1,2.4,2.4,2.4c84.7,0,84.7,0,84.7,0  c1.4,0,2.4-1,2.4-2.4c0-1.2,0-1.2,0-1.2C94.5,89.8,93.5,88.6,92.1,88.6"></path><path xmlns="http://www.w3.org/2000/svg" d="M26.3,48.8c0-0.6,0.6-1.2,1.4-1.2c0.6,0,1.2,0.6,1.2,1.2c0,21.9,0,21.9,0,21.9c0,0.8-0.6,1.2-1.2,1.2  c-0.8,0-1.4-0.4-1.4-1.2 M20.7,74.1c-1.2,0-2.4,1-2.4,2.2s1.2,2.2,2.4,2.2c12.2,0,12.2,0,12.2,0c1.2,0,2.4-1,2.4-2.2  s-1.2-2.2-2.4-2.2c-1,0-1,0-1,0c0-28.7,0-28.7,0-28.7c1,0,1,0,1,0c1.2,0,2.4-1,2.4-2.2S34.1,41,32.9,41c-12.2,0-12.2,0-12.2,0  c-1.2,0-2.4,1-2.4,2.2s1.2,2.2,2.4,2.2c1,0,1,0,1,0c0,28.7,0,28.7,0,28.7H20.7z"></path><path xmlns="http://www.w3.org/2000/svg" d="M51.8,70.7c0,0.8-0.6,1.2-1.2,1.2s-1.2-0.4-1.2-1.2c0-21.9,0-21.9,0-21.9c0-0.6,0.6-1.2,1.2-1.2s1.2,0.6,1.2,1.2 M55.8,45.4  c1.4,0,2.6-1,2.6-2.2S57.2,41,55.8,41c-12,0-12,0-12,0c-1.4,0-2.4,1-2.4,2.2s1,2.2,2.4,2.2c1,0,1,0,1,0c0,28.7,0,28.7,0,28.7  c-1,0-1,0-1,0c-1.4,0-2.4,1-2.4,2.2s1,2.2,2.4,2.2c12,0,12,0,12,0c1.4,0,2.6-1,2.6-2.2s-1.2-2.2-2.6-2.2c-0.8,0-0.8,0-0.8,0  c0-28.7,0-28.7,0-28.7H55.8z"></path><path xmlns="http://www.w3.org/2000/svg" d="M74.6,70.7c0,0.8-0.6,1.2-1.2,1.2c-0.6,0-1.2-0.4-1.2-1.2c0-21.9,0-21.9,0-21.9c0-0.6,0.6-1.2,1.2-1.2  c0.6,0,1.2,0.6,1.2,1.2 M78.8,45.4c1.2,0,2.4-1,2.4-2.2S80,41,78.8,41c-12.2,0-12.2,0-12.2,0c-1.4,0-2.4,1-2.4,2.2s1,2.2,2.4,2.2  c1,0,1,0,1,0c0,28.7,0,28.7,0,28.7c-1,0-1,0-1,0c-1.4,0-2.4,1-2.4,2.2s1,2.2,2.4,2.2c12.2,0,12.2,0,12.2,0c1.2,0,2.4-1,2.4-2.2  s-1.2-2.2-2.4-2.2c-1,0-1,0-1,0c0-28.7,0-28.7,0-28.7H78.8z"></path><path xmlns="http://www.w3.org/2000/svg" d="M11.6,35.8c0.8,1.2,2.4,1.2,3.6,0.6c32.5-22.3,32.5-22.3,32.5-22.3c1.2-0.6,3-0.6,4,0c32.5,22.3,32.5,22.3,32.5,22.3  c1.2,0.6,2.8,0.6,3.6-0.6c0.8-0.8,0.8-0.8,0.8-0.8c0.8-1,0.6-2.4-0.6-3.2C51.8,7.3,51.8,7.3,51.8,7.3c-1-0.8-2-1.4-2-1.4l0,0  c0,0-1,0.6-2,1.4C11.4,31.8,11.4,31.8,11.4,31.8C10.2,32.6,10,34,10.8,35"></path><path xmlns="http://www.w3.org/2000/svg" d="M72.2,33.2c1.2,0,1.4-0.6,0.4-1.4c-20.9-14-20.9-14-20.9-14c-1.2-0.6-3-0.6-4,0c-20.9,14-20.9,14-20.9,14  c-1.2,0.8-0.8,1.4,0.4,1.4"></path></g><g id="SvgjsG3057" featureKey="nameFeature-0" transform="matrix(0.8301592001825273,0,0,0.8301592001825273,148,21.07129672585042)" fill="#14364f"><path d="M27.48 26 c1.92 1.4 3.12 3.64 3.12 6.2 c0 4.32 -3.48 7.8 -7.8 7.8 l-22.8 0 l0 -15.6 l9.32 0 l0 0.04 l0 6.2 l13.48 0 c0.84 0.04 1.48 0.72 1.48 1.56 s-0.64 1.52 -1.48 1.56 l-16.56 0 l0 -6.24 l-3.12 0 l0 9.36 l19.68 0 l0.04 0 c2.56 0 4.64 -2.08 4.64 -4.68 c0 -2.44 -1.96 -4.52 -4.4 -4.64 l-10.64 0 l0 -3.12 l10.52 0 c2.52 -0.12 4.52 -2.12 4.52 -4.68 c0 -2.6 -2.08 -4.68 -4.64 -4.68 l-0.04 0 l-19.68 0 l0 3.12 l19.68 0 c0.84 0.04 1.48 0.72 1.48 1.56 s-0.64 1.52 -1.48 1.56 l-22.8 0 l0 -9.36 l22.8 0 c4.32 0 7.8 3.48 7.8 7.8 c0 2.56 -1.2 4.8 -3.12 6.24 z M57.04400000000001 30.64 l1.8 -3.12 l5.44 9.36 l3.6 0 c-0.8 -1.28 -8.4 -14.28 -9.04 -15.56 l-7.84 13.6 l-2.92 5.08 l-10.8 0 c0.6 -1 4.64 -8.04 8.52 -14.8 c2.28 -3.96 4.8 -8.4 7.64 -13.24 l3.6 0 l-7.44 12.88 l-6.92 12.04 l3.6 0 c4.92 -8.68 8 -13.8 12.56 -21.8 c0.28 0.48 14.36 24.88 14.44 24.92 l-10.8 0 z M79.96800000000002 11.96 l22.84 0 c4.28 0 7.76 3.48 7.76 7.8 c0 4.28 -3.48 7.8 -7.76 7.8 l-19.72 -0.04 l0 9.36 l3.12 0 l0 -6.24 l3.08 0 l0 9.36 l-9.32 0 l0 -15.6 l22.84 0.04 c2.56 0 4.64 -2.12 4.64 -4.68 c0 -2.6 -2.08 -4.68 -4.64 -4.68 l-19.72 0 l0 3.12 l19.72 0 c0.8 0.04 1.48 0.72 1.48 1.56 s-0.64 1.52 -1.56 1.56 l-0.04 0 l-22.72 0 l0 -9.36 z M167.336 11.96 l0 9.36 l-21.24 0 l0 3.12 l15.76 0 l0 3.12 l-18.88 0 l0 -9.36 l21.24 0 l0 -3.12 l-24.36 0 l0 21.8 l24.36 0 l0 -3.12 l-21.24 0 l0 -3.12 l24.36 0 l0 9.36 l-30.6 0 l0 -28.04 l30.6 0 z M204.78000000000003 40 l-10.8 0 l-3.64 -6.28 l-7 0 l0 6.28 l-9.32 0 l0 -15.6 l22.88 0.04 c2.6 0 4.68 -2.12 4.68 -4.68 c0 -2.6 -2.08 -4.68 -4.68 -4.68 l-19.76 0 l0 3.12 l19.76 0 c0.84 0.04 1.48 0.72 1.48 1.56 s-0.64 1.52 -1.48 1.56 l-0.04 0 l-0.04 0 l-22.8 0 l0 -9.36 l22.88 0 c4.32 0 7.8 3.48 7.8 7.8 c0 4.28 -3.48 7.8 -7.8 7.8 l-19.76 -0.04 l0 9.36 l3.12 0 l0 -6.28 l11.88 0 c1.28 2.32 3.44 5.88 3.64 6.28 l3.6 0 c-0.32 -0.44 -2.16 -3.72 -3.64 -6.28 l3.6 0 c1.32 2.28 2.64 4.64 3.72 6.4 z"></path></g><g id="SvgjsG3058" featureKey="nameFeature-1" transform="matrix(1.173611769489583,0,0,1.173611769489583,148,49.96360878835186)" fill="#14364f"><path d="M27.48 26 c1.92 1.4 3.12 3.64 3.12 6.2 c0 4.32 -3.48 7.8 -7.8 7.8 l-22.8 0 l0 -15.6 l9.32 0 l0 0.04 l0 6.2 l13.48 0 c0.84 0.04 1.48 0.72 1.48 1.56 s-0.64 1.52 -1.48 1.56 l-16.56 0 l0 -6.24 l-3.12 0 l0 9.36 l19.68 0 l0.04 0 c2.56 0 4.64 -2.08 4.64 -4.68 c0 -2.44 -1.96 -4.52 -4.4 -4.64 l-10.64 0 l0 -3.12 l10.52 0 c2.52 -0.12 4.52 -2.12 4.52 -4.68 c0 -2.6 -2.08 -4.68 -4.64 -4.68 l-0.04 0 l-19.68 0 l0 3.12 l19.68 0 c0.84 0.04 1.48 0.72 1.48 1.56 s-0.64 1.52 -1.48 1.56 l-22.8 0 l0 -9.36 l22.8 0 c4.32 0 7.8 3.48 7.8 7.8 c0 2.56 -1.2 4.8 -3.12 6.24 z M57.04400000000001 30.64 l1.8 -3.12 l5.44 9.36 l3.6 0 c-0.8 -1.28 -8.4 -14.28 -9.04 -15.56 l-7.84 13.6 l-2.92 5.08 l-10.8 0 c0.6 -1 4.64 -8.04 8.52 -14.8 c2.28 -3.96 4.8 -8.4 7.64 -13.24 l3.6 0 l-7.44 12.88 l-6.92 12.04 l3.6 0 c4.92 -8.68 8 -13.8 12.56 -21.8 c0.28 0.48 14.36 24.88 14.44 24.92 l-10.8 0 z M98.28800000000001 25.68 l0 -13.72 l9.36 0 l0 28.04 l-9.36 0 l-15 -17.36 l0 -4.8 l16.44 19.04 l4.8 0 l0 -21.8 l-3.12 0 l0 19 l-16.44 -19 l-4.8 0 l0 21.8 l3.12 0 l0 -9.44 l3.12 3.6 l0 8.96 l-9.36 0 l0 -28.04 l9.36 0 z M129.73200000000003 30.32 l2.28 -2.12 l12.84 11.8 l-13.8 0 l-10.48 -9.6 l16.24 -15.32 l-4.52 0 l-11.72 11.32 l0 -11.32 l-3.12 0 l0 21.8 l5.52 0 l3.44 3.12 l-12.08 0 l0 -28.04 l9.36 0 l0 6.88 l7.36 -6.88 l13.64 0 l-19.56 18.4 l7.12 6.52 l4.6 0 z"></path></g>
			</g>
		</svg>
	